<svg id="Layer_1" data-name="Layer 1" xmlns="http://www.w3.org/2000/svg" viewBox="0 0 676.83 226.37"><defs><style>.cls-1{fill:#db5c4d;}.cls-2{fill:#000;}</style></defs><path class="cls-1" d="M295.13,161.32a11.42,11.42,0,0,0-8.25,3.27l-6.38-6.72c3.4-3.27,7.23-5.88,15.74-5.88,9.27,0,16.33,5,16.33,16.22v20.33h-11.4l.26-5c-2.72,4.12-5.87,5.71-10.72,5.71-6.64,0-12.77-2.94-12.77-11.25,0-7.65,5.88-10.76,14.81-10.76h8.42C301,163.17,299,161.32,295.13,161.32ZM293.35,174c-2.9,0-4.17,1.26-4.17,3.28s1.7,3.19,4.93,3.19c4.68,0,7.06-2,7.06-5V174Z"/><path class="cls-2" d="M321.08,173.41V152.75h11.49v19.91c0,4,2,6.38,6,6.38,4.6,0,7.15-2.6,7.15-7.14V152.75h11.49v35.79H345.76l.26-5.88a12.32,12.32,0,0,1-11.41,6.63C326.7,189.29,321.08,183.58,321.08,173.41Z"/><path class="cls-2" d="M366.27,152.75h11.48l-.17,6.47c2.64-5.88,6.9-7.23,10.64-7.23a11.69,11.69,0,0,1,5.62,1.43l-3.66,10.33a10.17,10.17,0,0,0-4.43-1.09c-5.19,0-8,2.35-8,10v15.88H366.27Z"/><path class="cls-2" d="M413.24,161.32a11.47,11.47,0,0,0-8.26,3.27l-6.38-6.72c3.41-3.27,7.23-5.88,15.74-5.88,9.28,0,16.34,5,16.34,16.22v20.33h-11.4l.25-5c-2.72,4.12-5.87,5.71-10.72,5.71-6.63,0-12.76-2.94-12.76-11.25,0-7.65,5.87-10.76,14.8-10.76h8.43C419.11,163.17,417.07,161.32,413.24,161.32ZM411.45,174c-2.89,0-4.17,1.26-4.17,3.28s1.7,3.19,4.94,3.19c4.68,0,7.06-2,7.06-5V174Z"/><path class="cls-1" d="M439.7,127.88h11.4v60.66H439.7Z"/><path class="cls-2" d="M460.38,152.75h11.48l-.25,5.88A12.41,12.41,0,0,1,483.09,152c7.92,0,13.62,5.72,13.62,15.88v20.67H485.22V168.63c0-4-2-6.3-6-6.3-4.6,0-7.32,2.52-7.32,7v19.16H460.38Z"/><path class="cls-2" d="M525.3,179.88a15.83,15.83,0,0,0,9.1-2.85l6.55,7c-3.48,3-7.91,5.29-15.48,5.29-12.93,0-21.27-7.73-21.27-18.73,0-10.84,8.76-18.57,20-18.57,13,0,20.08,9.58,19.23,22.1H515.94C517.05,177.78,520.11,179.88,525.3,179.88Zm6.55-12.35c-.51-3.94-3.06-6.3-7.57-6.3s-7.58,2-8.51,6.3Z"/><path class="cls-2" d="M559.08,169.8l-12.17-17.05h13.53l3,4.45a39.21,39.21,0,0,1,2.72,5.55,35.58,35.58,0,0,1,2.64-5.55l2.89-4.45h12.26l-12,16.13,14,19.66H572.27l-4.17-6.14a50.59,50.59,0,0,1-3.32-6.38,50.59,50.59,0,0,1-3.32,6.38l-4.08,6.14H545.13Z"/><path class="cls-2" d="M591.5,173.41V152.75H603v19.91c0,4,2,6.38,6,6.38,4.59,0,7.14-2.6,7.14-7.14V152.75h11.49v35.79H616.17l.26-5.88a12.3,12.3,0,0,1-11.4,6.63C597.11,189.29,591.5,183.58,591.5,173.41Z"/><path class="cls-2" d="M634,182.49l6.73-5.88a13.05,13.05,0,0,0,9,3.78c3.74,0,4.93-.67,4.93-2.19,0-1.93-2.3-1.93-8.17-3.44-4.93-1.26-10.46-3.95-10.46-11.43,0-8.06,6.29-11.34,14-11.34,6,0,10.21,1.93,13.18,5l-6.12,6.47a11.26,11.26,0,0,0-7-2.69c-2.64,0-3.91.67-3.91,2.1,0,2,2.29,2.27,7.23,3.36,5.27,1.18,11.91,3.61,11.91,11.17,0,6.56-3.49,11.93-14.89,11.93C642.13,189.29,637.19,186.18,634,182.49Z"/><path class="cls-2" d="M171.84,105.76c-8,2.66-13.76,9.62-13.76,17.79v31.07c0,19.12-16.47,34.67-36.73,34.67-19.39,0-35.17-14.89-35.17-33.21V71.75c0-10.77-9.68-19.54-21.6-19.54h-.5c-11.57,0-21,8.51-21,19v83.44c0,13.79-8.67,26.26-22.09,31.8a38.46,38.46,0,0,1-9.6,2.55l.74-15.35a22.31,22.31,0,0,0,10-5A19.32,19.32,0,0,0,28,159.67V71.18c0-18.8,16.22-34.1,36.13-34.1h1c20,.25,36.23,15.81,36.23,34.66v84.33c0,10,9,18.08,20,18.08,11.91,0,21.59-8.77,21.59-19.54V123.55c0-15.74,11.37-29,26.77-32.93a11.23,11.23,0,0,0-2,6.4A11.38,11.38,0,0,0,171.84,105.76Z"/><path class="cls-2" d="M241.56,174.16v15.13H237.4c-20.24,0-36.73-15.55-36.73-34.67v-30.5c0-8.46-6-15.69-14.33-18.4a11.32,11.32,0,0,0,2.1-15.12c15.74,3.91,27.37,17.45,27.37,33.52v30.5c0,10.77,9.68,19.54,21.59,19.54Z"/><path class="cls-1" d="M179.08,89.45A7.57,7.57,0,1,0,186.65,97,7.56,7.56,0,0,0,179.08,89.45Z"/></svg>