<svg xmlns="http://www.w3.org/2000/svg" version="1.1" xmlns:xlink="http://www.w3.org/1999/xlink" xmlns:svgjs="http://svgjs.dev/svgjs" width="1440" height="250" preserveAspectRatio="none" viewBox="0 0 1440 250"><g mask="url(&quot;#SvgjsMask1023&quot;)" fill="none"><path d="M25 250L275 0L341 0L91 250z" fill="url(&quot;#SvgjsLinearGradient1024&quot;)"></path><path d="M273.6 250L523.6 0L622.6 0L372.6 250z" fill="url(&quot;#SvgjsLinearGradient1024&quot;)"></path><path d="M516.2 250L766.2 0L901.2 0L651.2 250z" fill="url(&quot;#SvgjsLinearGradient1024&quot;)"></path><path d="M738.8000000000001 250L988.8000000000001 0L1128.3000000000002 0L878.3000000000001 250z" fill="url(&quot;#SvgjsLinearGradient1024&quot;)"></path><path d="M1428 250L1178 0L890 0L1140 250z" fill="url(&quot;#SvgjsLinearGradient1025&quot;)"></path><path d="M1163.4 250L913.4000000000001 0L700.4000000000001 0L950.4000000000001 250z" fill="url(&quot;#SvgjsLinearGradient1025&quot;)"></path><path d="M954.8 250L704.8 0L463.29999999999995 0L713.3 250z" fill="url(&quot;#SvgjsLinearGradient1025&quot;)"></path><path d="M712.1999999999999 250L462.19999999999993 0L339.19999999999993 0L589.1999999999999 250z" fill="url(&quot;#SvgjsLinearGradient1025&quot;)"></path><path d="M1276.7372114371246 250L1440 86.73721143712476L1440 250z" fill="url(&quot;#SvgjsLinearGradient1024&quot;)"></path><path d="M0 250L163.26278856287524 250L 0 86.73721143712476z" fill="url(&quot;#SvgjsLinearGradient1025&quot;)"></path></g><defs><mask id="SvgjsMask1023"><rect width="1440" height="250" fill="#ffffff"></rect></mask><linearGradient x1="0%" y1="100%" x2="100%" y2="0%" id="SvgjsLinearGradient1024"><stop stop-color="rgba(255, 87, 34, 0.44)" offset="0"></stop><stop stop-opacity="0" stop-color="rgba(255, 87, 34, 0.44)" offset="0.66"></stop></linearGradient><linearGradient x1="100%" y1="100%" x2="0%" y2="0%" id="SvgjsLinearGradient1025"><stop stop-color="rgba(255, 87, 34, 0.44)" offset="0"></stop><stop stop-opacity="0" stop-color="rgba(255, 87, 34, 0.44)" offset="0.66"></stop></linearGradient></defs></svg>