<svg xmlns="http://www.w3.org/2000/svg" version="1.1" xmlns:xlink="http://www.w3.org/1999/xlink" xmlns:svgjs="http://svgjs.dev/svgjs" width="2500" height="560" preserveAspectRatio="none" viewBox="0 0 2500 560"><g mask="url(&quot;#SvgjsMask1131&quot;)" fill="none"><path d="M -305.0617403833247,290 C -242.46,274.8 -117.26,215 7.938259616675273,214 C 133.14,213 195.74,289.2 320.9382596166753,285 C 446.14,280.8 508.74,179 633.9382596166753,193 C 759.14,207 821.74,358.2 946.9382596166753,355 C 1072.14,351.8 1134.74,178.4 1259.9382596166752,177 C 1385.14,175.6 1447.74,343.2 1572.9382596166752,348 C 1698.14,352.8 1760.74,205.8 1885.9382596166752,201 C 2011.14,196.2 2073.74,321 2198.938259616675,324 C 2324.14,327 2451.73,223.4 2511.938259616675,216 C 2572.15,208.6 2502.39,272.8 2500,287" stroke="rgba(255, 87, 34, 0.38)" stroke-width="2"></path><path d="M -43.022768702611074,228 C 19.58,242.2 144.78,298.8 269.9772312973889,299 C 395.18,299.2 457.78,215.4 582.9772312973889,229 C 708.18,242.6 770.78,377.6 895.9772312973889,367 C 1021.18,356.4 1083.78,189.6 1208.977231297389,176 C 1334.18,162.4 1396.78,290.2 1521.977231297389,299 C 1647.18,307.8 1709.78,207.4 1834.977231297389,220 C 1960.18,232.6 2022.78,362 2147.977231297389,362 C 2273.18,362 2335.78,214.8 2460.977231297389,220 C 2586.18,225.2 2766.17,395.6 2773.977231297389,388 C 2781.78,380.4 2554.8,223.2 2500,182" stroke="rgba(255, 87, 34, 0.38)" stroke-width="2"></path><path d="M -569.5198837630918,230 C -506.92,245.6 -381.72,317.6 -256.5198837630918,308 C -131.32,298.4 -68.72,185.4 56.4801162369082,182 C 181.68,178.6 244.28,292.6 369.4801162369082,291 C 494.68,289.4 557.28,164.4 682.4801162369082,174 C 807.68,183.6 870.28,336 995.4801162369082,339 C 1120.68,342 1183.28,198 1308.480116236908,189 C 1433.68,180 1496.28,279.6 1621.480116236908,294 C 1746.68,308.4 1809.28,245.8 1934.480116236908,261 C 2059.68,276.2 2134.38,384.8 2247.480116236908,370 C 2360.58,355.2 2449.5,223.6 2500,187" stroke="rgba(255, 87, 34, 0.38)" stroke-width="2"></path><path d="M -515.6220009647734,182 C -453.02,221.6 -327.82,370.6 -202.62200096477343,380 C -77.42,389.4 -14.82,245.8 110.37799903522657,229 C 235.58,212.2 298.18,306.2 423.3779990352266,296 C 548.58,285.8 611.18,168.4 736.3779990352266,178 C 861.58,187.6 924.18,333 1049.3779990352266,344 C 1174.58,355 1237.18,239.4 1362.3779990352266,233 C 1487.58,226.6 1550.18,304.2 1675.3779990352266,312 C 1800.58,319.8 1863.18,274.2 1988.3779990352266,272 C 2113.58,269.8 2199.05,304.2 2301.3779990352264,301 C 2403.7,297.8 2460.28,265 2500,256" stroke="rgba(255, 87, 34, 0.38)" stroke-width="2"></path><path d="M -170.61687326671057,368 C -108.02,335.8 17.18,215 142.38312673328943,207 C 267.58,199 330.18,321.4 455.38312673328943,328 C 580.58,334.6 643.18,233.2 768.3831267332894,240 C 893.58,246.8 956.18,363 1081.3831267332894,362 C 1206.58,361 1269.18,243.4 1394.3831267332894,235 C 1519.58,226.6 1582.18,332.6 1707.3831267332894,320 C 1832.58,307.4 1895.18,178.8 2020.3831267332894,172 C 2145.58,165.2 2208.18,271.2 2333.3831267332894,286 C 2458.58,300.8 2613.06,237.8 2646.3831267332894,246 C 2679.71,254.2 2529.28,310.8 2500,327" stroke="rgba(255, 87, 34, 0.38)" stroke-width="2"></path><path d="M -161.92333188416382,288 C -99.32,276.2 25.88,230.4 151.07666811583618,229 C 276.28,227.6 338.88,290.8 464.0766681158362,281 C 589.28,271.2 651.88,172.2 777.0766681158361,180 C 902.28,187.8 964.88,314.4 1090.0766681158361,320 C 1215.28,325.6 1277.88,200.6 1403.0766681158361,208 C 1528.28,215.4 1590.88,345.4 1716.0766681158361,357 C 1841.28,368.6 1903.88,280.6 2029.0766681158361,266 C 2154.28,251.4 2216.88,282 2342.076668115836,284 C 2467.28,286 2623.49,274.2 2655.076668115836,276 C 2686.66,277.8 2531.02,289.6 2500,293" stroke="rgba(255, 87, 34, 0.38)" stroke-width="2"></path></g><defs><mask id="SvgjsMask1131"><rect width="2500" height="560" fill="#ffffff"></rect></mask></defs></svg>