<svg xmlns="http://www.w3.org/2000/svg" version="1.1" xmlns:xlink="http://www.w3.org/1999/xlink" xmlns:svgjs="http://svgjs.dev/svgjs" width="2500" height="900" preserveAspectRatio="none" viewBox="0 0 2500 900"><g mask="url(&quot;#SvgjsMask1074&quot;)" fill="none"><path d="M -631.949627031915,302 C -560.35,361.4 -417.15,578.2 -273.94962703191504,599 C -130.75,619.8 -59.15,435.2 84.05037296808496,406 C 227.25,376.8 298.85,459.6 442.05037296808496,453 C 585.25,446.4 656.85,344.2 800.050372968085,373 C 943.25,401.8 1014.85,581.8 1158.050372968085,597 C 1301.25,612.2 1372.85,460 1516.050372968085,449 C 1659.25,438 1730.85,567.4 1874.050372968085,542 C 2017.25,516.6 2106.86,309.8 2232.050372968085,322 C 2357.24,334.2 2446.41,546.8 2500,603" stroke="rgba(255, 87, 34, 0.38)" stroke-width="2"></path><path d="M -384.6444940023318,276 C -313.04,342.4 -169.84,607.8 -26.64449400233179,608 C 116.56,608.2 188.16,301.2 331.3555059976682,277 C 474.56,252.8 546.16,479.6 689.3555059976682,487 C 832.56,494.4 904.16,289.2 1047.3555059976682,314 C 1190.56,338.8 1262.16,613.6 1405.3555059976682,611 C 1548.56,608.4 1620.16,321.8 1763.3555059976682,301 C 1906.56,280.2 1978.16,503.4 2121.3555059976684,507 C 2264.56,510.6 2403.63,296.2 2479.3555059976684,319 C 2555.08,341.8 2495.87,560.6 2500,621" stroke="rgba(255, 87, 34, 0.38)" stroke-width="2"></path><path d="M -160.24894697119777,523 C -88.65,488.6 54.55,342.6 197.75105302880223,351 C 340.95,359.4 412.55,548.6 555.7510530288023,565 C 698.95,581.4 770.55,448.4 913.7510530288023,433 C 1056.95,417.6 1128.55,518.8 1271.7510530288023,488 C 1414.95,457.2 1486.55,269 1629.7510530288023,279 C 1772.95,289 1844.55,510.2 1987.7510530288023,538 C 2130.95,565.8 2202.55,433.2 2345.7510530288023,418 C 2488.95,402.8 2672.9,479 2703.7510530288023,462 C 2734.6,445 2540.75,358.8 2500,333" stroke="rgba(255, 87, 34, 0.38)" stroke-width="2"></path></g><defs><mask id="SvgjsMask1074"><rect width="2500" height="900" fill="#ffffff"></rect></mask></defs></svg>