<svg xmlns="http://www.w3.org/2000/svg" version="1.1" xmlns:xlink="http://www.w3.org/1999/xlink" xmlns:svgjs="http://svgjs.dev/svgjs" width="2500" height="560" preserveAspectRatio="none" viewBox="0 0 2500 560"><g mask="url(&quot;#SvgjsMask1150&quot;)" fill="none"><path d="M -502.7871454564379,385 C -440.19,358.6 -314.99,257 -189.78714545643786,253 C -64.59,249 -1.99,376.4 123.21285454356214,365 C 248.41,353.6 311.01,205 436.2128545435621,196 C 561.41,187 624.01,309.4 749.2128545435621,320 C 874.41,330.6 937.01,245 1062.2128545435621,249 C 1187.41,253 1250.01,353.6 1375.2128545435621,340 C 1500.41,326.4 1563.01,180 1688.2128545435621,181 C 1813.41,182 1876.01,327.4 2001.2128545435621,345 C 2126.41,362.6 2214.46,264 2314.212854543562,269 C 2413.97,274 2462.84,349.8 2500,370" stroke="rgba(255, 87, 34, 0.38)" stroke-width="2"></path><path d="M -169.01245886223003,239 C -106.41,262.6 18.79,352.6 143.98754113776997,357 C 269.19,361.4 331.79,256.2 456.98754113777,261 C 582.19,265.8 644.79,387.2 769.98754113777,381 C 895.19,374.8 957.79,225.8 1082.98754113777,230 C 1208.19,234.2 1270.79,419.4 1395.98754113777,402 C 1521.19,384.6 1583.79,155 1708.98754113777,143 C 1834.19,131 1896.79,324.6 2021.98754113777,342 C 2147.19,359.4 2209.79,217.2 2334.9875411377698,230 C 2460.19,242.8 2614.99,414.6 2647.9875411377698,406 C 2680.99,397.4 2529.6,230.8 2500,187" stroke="rgba(255, 87, 34, 0.38)" stroke-width="2"></path><path d="M -460.0203587011604,133 C -397.42,186.8 -272.22,402 -147.02035870116038,402 C -21.82,402 40.78,148.4 165.97964129883962,133 C 291.18,117.6 353.78,308 478.9796412988396,325 C 604.18,342 666.78,198.4 791.9796412988396,218 C 917.18,237.6 979.78,440.8 1104.9796412988396,423 C 1230.18,405.2 1292.78,149.8 1417.9796412988396,129 C 1543.18,108.2 1605.78,316.6 1730.9796412988396,319 C 1856.18,321.4 1918.78,128.8 2043.9796412988396,141 C 2169.18,153.2 2265.78,352.6 2356.97964129884,380 C 2448.18,407.4 2471.4,298.4 2500,278" stroke="rgba(255, 87, 34, 0.38)" stroke-width="2"></path></g><defs><mask id="SvgjsMask1150"><rect width="2500" height="560" fill="#ffffff"></rect></mask></defs></svg>